<?xml version="1.0" encoding="UTF-8"?> <!-- Creator: CorelDRAW X7 --> <svg xmlns="http://www.w3.org/2000/svg" xmlns:xlink="http://www.w3.org/1999/xlink" xml:space="preserve" width="297mm" height="210mm" style="shape-rendering:geometricPrecision; text-rendering:geometricPrecision; image-rendering:optimizeQuality; fill-rule:evenodd; clip-rule:evenodd" viewBox="0 0 29700 21000"> <defs> <style type="text/css"> <![CDATA[ .str8 {stroke:#C5C6C6;stroke-width:42.33} .str6 {stroke:#9D9E9E;stroke-width:17.64} .str0 {stroke:#B7CBD8;stroke-width:17.64} .str1 {stroke:#95A5B0;stroke-width:67.73;stroke-linecap:round;stroke-linejoin:round} .str5 {stroke:#EBECEC;stroke-width:42.33;stroke-linecap:round;stroke-linejoin:round} .str2 {stroke:#C5C6C6;stroke-width:17.64;stroke-linecap:round;stroke-linejoin:round} .str7 {stroke:#9D9E9E;stroke-width:17.64;stroke-linecap:round;stroke-linejoin:round} .str3 {stroke:#727271;stroke-width:17.64;stroke-linecap:round;stroke-linejoin:round} .str4 {stroke:#F25D5A;stroke-width:17.64;stroke-linecap:round;stroke-linejoin:round} .fil1 {fill:none} .fil8 {fill:#FEFEFE} .fil7 {fill:#EBECEC} .fil17 {fill:#EBECEC} .fil3 {fill:#C5C6C6} .fil2 {fill:#9D9E9E} .fil6 {fill:#727271} .fil4 {fill:#5B5B5B} .fil15 {fill:#F5B2B6} .fil20 {fill:#EF7F1A} .fil12 {fill:#EA5957} .fil19 {fill:#E765A1} .fil9 {fill:#E44F96} .fil5 {fill:#B7CBD8} .fil10 {fill:#B0CB1F} .fil13 {fill:#9AABB6} .fil11 {fill:#6C86C3} .fil21 {fill:#C44B49} .fil18 {fill:#F25D5A} .fil14 {fill:#FFBABF} .fil22 {fill:#EF7F1A;fill-rule:nonzero} .fil16 {fill:#F8E60D;fill-rule:nonzero} .fil23 {fill:#E15699;fill-rule:nonzero} .fil0 {fill:url(#id1)} ]]> </style> <clipPath id="id0"> <path d="M0 0l29700 0 0 21000 -29700 0 0 -21000z"></path> </clipPath> <linearGradient id="id1" gradientUnits="userSpaceOnUse" x1="7027.08" y1="863.748" x2="22672.9" y2="20136.3"> <stop offset="0" style="stop-opacity:1; stop-color:#80A2F2"></stop> <stop offset="0.4" style="stop-opacity:1; stop-color:#6B84D1"></stop> <stop offset="1" style="stop-opacity:1; stop-color:#E35BB3"></stop> </linearGradient> </defs> <g id="Слой_x0020_1"> <metadata id="CorelCorpID_0Corel-Layer"></metadata> <polygon class="fil0" points="0,0 29700,0 29700,21000 0,21000 "></polygon> <g style="clip-path:url(#id0)"> <g id="_1699598816"> <polyline id="1" class="fil1 str0" points="-3032,-19678 41885,6255 41885,6255 "></polyline> <polyline class="fil1 str0" points="36717,-19678 -8200,6255 -8200,6255 "></polyline> <polyline class="fil1 str0" points="-3032,-16925 41885,9008 41885,9008 "></polyline> <polyline class="fil1 str0" points="36717,-16925 -8200,9008 -8200,9008 "></polyline> <polyline class="fil1 str0" points="-3032,-14172 41885,11761 41885,11761 "></polyline> <polyline class="fil1 str0" points="36717,-14172 -8200,11761 -8200,11761 "></polyline> <polyline class="fil1 str0" points="-3032,-11419 41885,14514 41885,14514 "></polyline> <polyline class="fil1 str0" points="36717,-11419 -8200,14514 -8200,14514 "></polyline> <polyline class="fil1 str0" points="-3032,-8665 41885,17268 41885,17268 "></polyline> <polyline class="fil1 str0" points="36717,-8665 -8200,17268 -8200,17268 "></polyline> <polyline class="fil1 str0" points="-3032,-5912 41885,20021 41885,20021 "></polyline> <polyline class="fil1 str0" points="36717,-5912 -8200,20021 -8200,20021 "></polyline> <polyline class="fil1 str0" points="-3032,-3159 41885,22774 41885,22774 "></polyline> <polyline class="fil1 str0" points="36717,-3159 -8200,22774 -8200,22774 "></polyline> <polyline class="fil1 str0" points="-3032,-406 41885,25527 41885,25527 "></polyline> <polyline class="fil1 str0" points="36717,-406 -8200,25527 -8200,25527 "></polyline> <polyline class="fil1 str0" points="-3032,2347 41885,28280 41885,28280 "></polyline> <polyline class="fil1 str0" points="36717,2347 -8200,28280 -8200,28280 "></polyline> <polyline class="fil1 str0" points="-3032,5100 41885,31034 41885,31034 "></polyline> <polyline class="fil1 str0" points="36717,5100 -8200,31034 -8200,31034 "></polyline> <polyline class="fil1 str0" points="-3032,7854 41885,33787 41885,33787 "></polyline> <polyline class="fil1 str0" points="36717,7854 -8200,33787 -8200,33787 "></polyline> <polyline class="fil1 str0" points="-3032,10607 41885,36540 41885,36540 "></polyline> <polyline class="fil1 str0" points="36717,10607 -8200,36540 -8200,36540 "></polyline> <polyline class="fil1 str0" points="-3032,13360 41885,39293 41885,39293 "></polyline> <polyline class="fil1 str0" points="36717,13360 -8200,39293 -8200,39293 "></polyline> <polyline class="fil1 str0" points="-3032,16113 41885,42046 41885,42046 "></polyline> <polyline class="fil1 str0" points="36717,16113 -8200,42046 -8200,42046 "></polyline> <polyline class="fil1 str0" points="-3032,18866 41885,44799 41885,44799 "></polyline> <polyline class="fil1 str0" points="36717,18866 -8200,44799 -8200,44799 "></polyline> <polyline class="fil1 str0" points="-3032,21620 41885,47553 41885,47553 "></polyline> <polyline class="fil1 str0" points="36717,21620 -8200,47553 -8200,47553 "></polyline> <g> <path class="fil2" d="M17204 24712c26,115 144,213 313,243 233,41 474,-59 539,-224 3,-7 5,-13 7,-19l0 0 234 -766 -1313 55 217 711 3 0z"></path> <path class="fil3" d="M16975 23904c-1,13 -1,27 0,40l0 2 0 0c13,195 201,367 482,417 351,63 716,-89 815,-339 10,-26 17,-53 21,-78l4 0 0 -785 -1323 66 1 677z"></path> <ellipse class="fil4" transform="matrix(-0.672196 -0.119962 -0.245833 0.622487 17635.5 23213.5)" rx="947" ry="728"></ellipse> <path class="fil5" d="M15962 20320c-360,-727 -2010,-863 -1638,-379 394,514 628,161 -278,286 -332,45 -494,328 88,314 393,-9 -920,652 -361,808 267,75 397,-103 453,-129 62,-28 29,357 94,561 161,500 598,1065 802,-77 100,-558 783,1032 807,-94 6,-264 -317,-944 151,-482 153,150 -97,-730 -118,-808z"></path> <path class="fil5" d="M16651 18218c5,111 -127,-68 -426,-176 -1912,-689 -1061,414 -672,414 -116,0 -753,-24 -753,66 0,710 915,348 741,664 -332,601 777,451 739,478 -331,234 337,436 649,436 1911,0 -326,-2854 -278,-1882z"></path> <path class="fil5" d="M17707 22002c22,-343 -414,-779 -600,-1063 -60,148 179,320 -60,148 -238,-171 -452,-299 -331,117 -25,-10 -598,-46 -593,60 20,426 541,57 137,362 -248,187 -84,551 117,482 29,210 -493,907 70,815 390,-63 320,-259 337,-54 4,58 497,-21 578,-598 44,-315 9,-93 237,116 5,-7 106,-367 108,-385z"></path> <path class="fil1 str1" d="M15757 18289c1741,144 2253,2357 1999,3834 -15,87 -19,133 -19,217l-75 1140"></path> <path class="fil1 str1" d="M16411 22716c62,-441 758,-1460 1264,-1294 360,119 477,1254 361,1615 -33,102 -110,361 -129,452"></path> <path class="fil1 str1" d="M14632 22064c-105,-703 75,-1589 883,-1764 913,-197 1894,585 2215,1413 172,445 253,1306 141,1785"></path> </g> </g> </g> <polygon class="fil1" points="0,0 29700,0 29700,21000 0,21000 "></polygon> <polygon class="fil2" points="2987,17501 2329,18830 2423,18846 3113,17573 "></polygon> <polygon class="fil2" points="20338,8819 19679,10149 19773,10164 20464,8892 "></polygon> <polygon class="fil4" points="3443,17764 3081,17944 1971,19002 1746,18752 2796,17702 3056,17540 "></polygon> <path class="fil3" d="M20906 10301c-168,124 -164,74 -357,146 -65,24 -152,130 -97,130l432 4c94,4 209,7 238,-60 23,-55 -12,-97 -2,-169l-214 -51z"></path> <path class="fil4" d="M20625 9250l525 1125 -290 -41 -735 -1009c-75,-75 71,-262 284,-473l452 269 -236 129z"></path> <polygon class="fil6" points="2680,17323 2427,17450 1746,18752 1902,18926 2796,17702 3056,17540 "></polygon> <polygon class="fil4" points="20030,8642 19777,8769 19096,10071 19253,10245 20146,9021 20407,8859 "></polygon> <path class="fil2" d="M1971 19002c-40,91 -38,110 -96,131 -133,49 -543,-21 -596,-103 -19,-29 -15,-47 75,-75l400 -50 119 -12 98 109z"></path> <path class="fil3" d="M1755 18763c-208,6 -176,-33 -376,-83 -67,-17 -199,21 -154,52l354 248c75,56 167,125 229,86 50,-32 46,-86 94,-140l-147 -163z"></path> <path class="fil3" d="M19106 10081c-209,7 -177,-32 -377,-82 -67,-17 -198,21 -154,52l354 248c75,56 168,125 230,85 50,-31 45,-85 94,-139l-147 -164z"></path> <polygon class="fil2" points="3636,17875 3159,19385 3272,19385 3841,17993 "></polygon> <polygon class="fil2" points="20987,9194 20510,10704 20622,10704 21191,9312 "></polygon> <polygon class="fil2" points="4754,17705 5029,19104 5117,19104 5109,19062 4923,17628 "></polygon> <polygon class="fil2" points="22104,9024 22380,10422 22468,10422 22459,10380 22274,8946 "></polygon> <path class="fil3" d="M4389 15078c1115,-748 1765,252 1427,969l-574 952 -1031 -595 178 -1326z"></path> <path class="fil3" d="M21740 6396c1114,-747 1764,253 1427,969l-575 952 -1030 -594 178 -1327z"></path> <polygon class="fil3" points="1435,16475 4540,18267 4540,18397 1435,16604 "></polygon> <polygon class="fil3" points="18785,7793 21890,9586 21890,9715 18785,7923 "></polygon> <polygon class="fil7" points="1435,16475 2884,15638 5989,17431 4540,18267 "></polygon> <polygon class="fil7" points="18785,7793 20235,6956 23340,8749 21890,9586 "></polygon> <path class="fil2" d="M2774 16768l840 -485 974 569 41 -35 0 80c0,10 -6,21 -25,32l-782 451 -1048 -612z"></path> <path class="fil2" d="M20124 8087l840 -485 975 569 40 -36 0 80c0,11 -5,21 -25,32l-781 452 -1049 -612z"></path> <path class="fil8" d="M2672 16746l942 -543 981 572c15,9 28,18 31,29 5,16 4,29 -22,44l-884 510 -1048 -612z"></path> <path class="fil8" d="M20022 8065l942 -544 981 573c15,8 28,17 32,29 5,15 4,29 -23,44l-884 510 -1048 -612z"></path> <polygon class="fil3" points="4540,18400 5989,17563 5989,17431 4540,18267 "></polygon> <polygon class="fil3" points="21890,9719 23340,8882 23340,8749 21890,9586 "></polygon> <path class="fil2" d="M2609 15536l1198 676c40,23 73,85 74,139l12 944c0,29 -9,49 -24,59l0 0 0 0 -1 1 -70 41 -7 -54 11 -2 -1179 -665c-40,-23 -74,-85 -74,-138l-12 -945 0 -4 -43 -15 67 -40 1 0 2 -1 0 0c12,-6 28,-5 45,4z"></path> <path class="fil2" d="M19960 6855l1197 676c40,23 74,85 75,138l11 945c1,28 -8,49 -23,58l0 0 -1 0 -1 1 -70 42 -7 -54 11 -2 -1178 -665c-41,-23 -74,-85 -75,-139l-11 -944 0 -4 -44 -15 68 -40 0 0 2 -2 0 0c13,-6 28,-5 46,5z"></path> <path class="fil8" d="M2539 15578l1197 676c40,23 74,85 75,139l11 944c1,53 -31,79 -72,56l-1197 -676c-41,-23 -74,-85 -75,-139l-11 -944c-1,-54 31,-79 72,-56z"></path> <path class="fil8" d="M19889 6897l1198 676c40,22 73,85 74,138l12 944c1,54 -32,79 -72,56l-1198 -676c-40,-22 -74,-85 -74,-138l-12 -944c-1,-54 32,-79 72,-56z"></path> <polygon class="fil9" points="3384,16554 3390,16470 3396,16385 3460,16360 3523,16334 3581,16393 3638,16452 3632,16536 3626,16621 3562,16646 3499,16672 3441,16613 "></polygon> <polygon class="fil9" points="20400,7610 20403,7568 20406,7526 20438,7513 20470,7500 20499,7529 20527,7559 20524,7601 20521,7643 20489,7656 20457,7669 20429,7639 "></polygon> <circle class="fil10" transform="matrix(0.862768 0.241039 -0 0.862768 3352.91 16346.8)" r="126"></circle> <circle class="fil11" transform="matrix(0.575179 0.160693 -0 0.575179 2725.83 16405)" r="126"></circle> <rect class="fil12" transform="matrix(0.544134 1.02178 -0.525655 0.850698 2796.95 16057.1)" width="375" height="125"></rect> <path class="fil13" d="M4439 14563c-93,20 -60,-121 -54,-189 10,-128 91,-154 194,-219 126,-80 150,27 225,-25 108,-75 87,91 131,62 140,-90 59,69 24,73 206,-39 -3,129 -3,176 0,49 4,147 -44,158 -26,7 42,58 -70,58l-403 -94z"></path> <path class="fil13" d="M21790 5881c-94,21 -60,-120 -55,-188 11,-128 -63,-428 40,-493 126,-80 375,-98 450,-150 108,-76 206,178 250,150 140,-90 35,271 0,275 207,-39 -168,237 -168,284 0,49 4,148 -44,159 -27,6 42,57 -71,57l-402 -94z"></path> <path class="fil14" d="M4765 14435c26,45 42,91 53,56 7,-24 51,19 17,114 -32,88 -95,372 -256,242 -92,-73 -133,-191 -142,-307 -19,-251 252,-237 328,-105z"></path> <path class="fil6" d="M21823 5887c13,-29 -135,-185 -196,-42 -29,69 169,331 218,246 54,-93 7,-97 -6,-180 0,-3 -3,-7 -5,-12l-11 -12z"></path> <path class="fil14" d="M22116 5754c26,44 42,90 52,55 7,-23 52,19 17,114 -32,89 -94,372 -256,243 -91,-74 -132,-192 -141,-308 -20,-251 252,-237 328,-104z"></path> <polygon class="fil14" points="4629,14805 4654,15055 4879,15005 4754,14730 "></polygon> <polygon class="fil14" points="21979,6124 22004,6374 22229,6324 22104,6049 "></polygon> <path class="fil15" d="M4104 16489c-27,10 -82,25 -112,41 -26,14 -90,-1 -108,45l2 181c3,-1 6,-1 8,-4l85 -47c1,-3 49,-60 58,-63 8,-2 18,-3 24,-6l110 -19 40 -65 -107 -63z"></path> <path class="fil15" d="M21455 7808c-28,9 -82,25 -113,41 -25,14 -90,-2 -108,45l3 180c3,0 6,-1 7,-4l85 -46c2,-3 50,-61 58,-64 8,-2 19,-2 25,-6l110 -19 40 -65 -107 -62z"></path> <path class="fil12" d="M4091 16494c9,-6 5,-33 13,-39 28,-23 69,-28 150,-25l-629 -366 -20 35 -211 -119c22,-19 -93,-125 -110,-147 -352,-463 372,-756 931,-862 172,-32 320,-26 427,-28 -13,74 211,72 211,16 1371,354 716,2332 -324,1750 -152,-85 -178,-69 -319,-69 -20,0 -32,0 -39,-23 8,-56 -17,-106 -80,-123z"></path> <path class="fil12" d="M21441 7812c9,-5 5,-32 13,-38 29,-23 69,-28 150,-25l-628 -367 -20 35 -211 -119c22,-18 -94,-124 -111,-146 -351,-464 372,-757 931,-862 172,-32 321,-26 428,-29 -14,75 210,72 210,16 1371,354 717,2333 -324,1750 -151,-85 -178,-68 -319,-68 -20,0 -31,0 -38,-24 7,-55 -17,-106 -81,-123z"></path> <path class="fil16" d="M3316 16738c11,-18 22,-26 44,-19 24,8 44,34 44,59 0,43 -44,73 -88,102 -44,-58 -87,-116 -87,-160 0,-24 19,-37 43,-29 22,7 33,21 44,47z"></path> <polygon class="fil2" points="3911,18034 3904,18730 3982,18722 4056,18118 "></polygon> <polygon class="fil2" points="21262,9352 21254,10049 21332,10041 21407,9436 "></polygon> <g id="_1699574784"> <path class="fil2" d="M2003 7770c-26,115 -144,212 -313,243 -233,41 -474,-59 -539,-225 -3,-6 -5,-12 -7,-18l0 0 -234 -767 1313 56 -217 711 -3 0z"></path> <path class="fil3" d="M2232 6962c1,13 1,26 0,40l0 1 0 0c-13,195 -201,368 -482,418 -351,63 -716,-89 -815,-340 -10,-26 -17,-52 -21,-78l-4 0 0 -785 1323 67 -1 677z"></path> <ellipse class="fil4" transform="matrix(0.672196 -0.119962 0.245833 0.622487 1571.44 6271.19)" rx="947" ry="728"></ellipse> <path class="fil5" d="M3245 3378c360,-727 2010,-864 1638,-379 -394,514 -628,161 278,285 332,46 494,328 -88,315 -393,-9 920,652 361,808 -267,75 -397,-103 -453,-129 -62,-29 -29,357 -94,561 -161,500 -598,1064 -802,-78 -100,-557 -783,1033 -807,-93 -6,-265 317,-944 -151,-483 -153,150 97,-729 118,-807z"></path> <path class="fil5" d="M2556 1276c-5,111 127,-68 426,-176 1912,-689 1061,413 672,413 116,0 753,-23 753,66 0,710 -915,349 -741,665 332,601 -777,450 -739,477 331,235 -337,437 -649,437 -1911,0 326,-2855 278,-1882z"></path> <path class="fil5" d="M1500 5059c-22,-342 414,-778 600,-1062 60,147 -179,319 60,147 238,-171 452,-298 331,118 25,-10 598,-46 593,60 -20,426 -541,56 -137,361 248,188 83,552 -117,483 -29,210 493,907 -70,815 -390,-64 -320,-259 -337,-55 -4,58 -497,-21 -578,-597 -44,-315 -9,-94 -237,115 -5,-7 -106,-366 -108,-385z"></path> <path class="fil1 str1" d="M3450 1347c-1741,144 -2253,2356 -1999,3834 15,86 19,133 19,217l75 1140"></path> <path class="fil1 str1" d="M2796 5773c-62,-440 -758,-1460 -1264,-1293 -360,119 -477,1254 -361,1615 33,102 110,360 129,452"></path> <path class="fil1 str1" d="M4575 5122c105,-703 -75,-1589 -883,-1764 -913,-197 -1894,585 -2215,1413 -172,445 -253,1306 -141,1785"></path> </g> <path class="fil2" d="M27797 19193c26,115 144,213 313,243 233,41 474,-59 539,-225 3,-6 5,-12 7,-18l0 0 234 -767 -1313 56 217 711 3 0z"></path> <path class="fil3" d="M27568 18385c-1,13 -1,27 0,40l0 1 0 0c13,195 201,368 482,418 351,63 716,-89 815,-339 10,-26 17,-53 21,-79l4 0 0 -785 -1323 67 1 677z"></path> <ellipse class="fil4" transform="matrix(-0.672196 -0.119962 -0.245833 0.622487 28228.6 17694.4)" rx="947" ry="728"></ellipse> <path class="fil5" d="M26555 14801c-360,-727 -2010,-863 -1638,-379 394,514 628,161 -278,286 -332,45 -494,328 88,314 393,-9 -920,652 -361,808 267,75 397,-103 453,-129 62,-28 29,357 94,561 161,500 598,1065 802,-77 100,-558 783,1032 807,-94 6,-265 -317,-944 151,-482 153,150 -97,-730 -118,-808z"></path> <path class="fil5" d="M27244 12699c5,111 -127,-68 -426,-176 -1912,-689 -1061,413 -672,413 -116,0 -753,-23 -753,67 0,710 915,348 741,664 -332,601 777,451 739,478 -331,234 338,436 649,436 1911,0 -326,-2855 -278,-1882z"></path> <path class="fil5" d="M28300 16483c22,-343 -414,-779 -600,-1063 -60,148 179,320 -60,148 -238,-171 -452,-299 -331,117 -25,-10 -598,-46 -593,60 20,426 541,57 137,362 -248,187 -83,551 117,482 29,210 -493,907 70,815 390,-63 320,-259 337,-54 5,58 497,-22 578,-598 44,-315 9,-93 237,116 5,-7 106,-367 108,-385z"></path> <path class="fil1 str1" d="M26350 12770c1741,144 2253,2356 1999,3834 -15,87 -19,133 -19,217l-75 1140"></path> <path class="fil1 str1" d="M27004 17197c62,-441 758,-1460 1264,-1294 360,119 477,1254 361,1615 -33,102 -110,361 -129,452"></path> <path class="fil1 str1" d="M25225 16545c-105,-703 75,-1589 883,-1764 913,-197 1894,585 2215,1413 172,445 253,1306 141,1785"></path> <g id="_1699630528"> <path class="fil2" d="M16353 7596c25,115 143,213 313,243 232,42 474,-59 539,-224 2,-6 4,-12 6,-19l0 0 234 -766 -1313 55 218 711 3 0z"></path> <path class="fil3" d="M16124 6788c-1,14 -1,27 0,40l0 2 0 0c13,195 200,367 481,417 352,63 717,-89 816,-339 10,-26 17,-52 21,-78l3 0 0 -785 -1322 67 1 676z"></path> <ellipse class="fil4" transform="matrix(-0.672196 -0.119962 -0.245833 0.622487 16784.3 6097.8)" rx="947" ry="728"></ellipse> <path class="fil5" d="M15111 3204c-360,-727 -2010,-863 -1638,-378 394,514 628,160 -278,285 -332,46 -494,328 88,314 393,-9 -920,653 -362,809 268,75 398,-104 454,-129 62,-29 28,356 94,560 161,501 597,1065 802,-77 100,-558 783,1033 807,-94 5,-264 -317,-944 151,-482 152,150 -97,-729 -118,-808z"></path> <path class="fil5" d="M15800 1103c5,110 -127,-68 -426,-176 -1912,-690 -1061,413 -672,413 -116,0 -753,-24 -753,66 0,710 915,348 741,664 -332,601 777,451 739,478 -331,234 337,436 649,436 1911,0 -327,-2854 -278,-1881z"></path> <path class="fil5" d="M16856 4886c22,-343 -414,-779 -600,-1062 -60,147 179,319 -60,147 -238,-171 -452,-299 -332,117 -24,-10 -597,-45 -592,61 19,425 540,56 137,361 -248,188 -84,552 117,482 29,211 -493,907 70,815 389,-63 320,-259 337,-54 4,58 497,-21 577,-598 44,-315 10,-93 238,116 4,-7 106,-366 108,-385z"></path> <path class="fil1 str1" d="M14906 1174c1740,144 2252,2356 1999,3834 -15,86 -19,132 -19,216l-76 1140"></path> <path class="fil1 str1" d="M15560 5600c61,-441 758,-1460 1263,-1293 361,118 477,1253 362,1614 -33,103 -110,361 -129,453"></path> <path class="fil1 str1" d="M13781 4949c-105,-704 75,-1590 883,-1764 912,-198 1894,584 2215,1413 172,445 252,1305 140,1784"></path> </g> <g id="_1699626592"> <path class="fil8" d="M25367 5821c-145,-140 -937,-370 -919,165 6,179 -70,246 138,400 214,159 535,93 614,27 17,-14 18,-29 -11,-42 -7,-4 -23,-9 -39,-8 -56,4 -147,34 -175,25 -25,-8 125,0 125,-75 21,64 125,54 183,64 80,14 119,31 167,11 37,-15 38,-49 19,-66 -13,-11 -44,-9 -44,-9 -56,-2 -76,-8 -20,-12 29,-2 58,-14 84,-30 64,-39 61,-88 86,-183 3,-11 27,-8 50,-90 -52,-1 -92,25 -120,3 -26,-20 -39,-84 -138,-180z"></path> <path class="fil1 str2" d="M25312 6081c1,-3 -54,-60 -53,-63 24,-4 76,2 108,23"></path> </g> <g id="_1699618144"> <path class="fil2" d="M24643 7596c-26,115 -144,213 -314,243 -232,42 -473,-59 -538,-224 -3,-6 -5,-12 -7,-19l0 0 -234 -766 1313 55 -218 711 -2 0z"></path> <path class="fil3" d="M24872 6788c0,14 0,27 0,40l0 2 -1 0c-13,195 -200,367 -481,417 -351,63 -716,-89 -815,-339 -10,-26 -17,-52 -21,-78l-4 0 0 -785 1322 67 0 676z"></path> <ellipse class="fil4" transform="matrix(0.672196 -0.119962 0.245833 0.622487 24211.1 6097.8)" rx="947" ry="728"></ellipse> <path class="fil5" d="M25884 3204c360,-727 2011,-863 1639,-378 -395,514 -628,160 278,285 332,46 493,328 -89,314 -392,-9 921,653 362,809 -268,75 -397,-104 -453,-129 -63,-29 -29,356 -95,560 -161,501 -597,1065 -802,-77 -100,-558 -783,1033 -806,-94 -6,-264 317,-944 -152,-482 -152,150 98,-729 118,-808z"></path> <path class="fil5" d="M25196 1103c-6,110 126,-68 426,-176 1911,-690 1060,413 672,413 116,0 752,-24 752,66 0,710 -915,348 -740,664 331,601 -778,451 -740,478 332,234 -337,436 -648,436 -1911,0 326,-2854 278,-1881z"></path> <path class="fil5" d="M24139 4886c-21,-343 414,-779 600,-1062 61,147 -178,319 61,147 237,-171 452,-299 331,117 25,-10 597,-45 593,61 -20,425 -541,56 -138,361 249,188 84,552 -117,482 -28,211 494,907 -70,815 -389,-63 -320,-259 -336,-54 -5,58 -498,-21 -578,-598 -44,-315 -9,-93 -237,116 -5,-7 -107,-366 -109,-385z"></path> <path class="fil1 str1" d="M26089 1174c-1740,144 -2252,2356 -1999,3834 15,86 20,132 20,216l75 1140"></path> <path class="fil1 str1" d="M25436 5600c-62,-441 -758,-1460 -1264,-1293 -360,118 -477,1253 -362,1614 33,103 110,361 129,453"></path> <path class="fil1 str1" d="M27214 4949c105,-704 -75,-1590 -882,-1764 -913,-198 -1895,584 -2215,1413 -172,445 -253,1305 -141,1784"></path> </g> <path class="fil1 str3" d="M4676 16375c27,-7 182,-31 198,-37l151 -116"></path> <path class="fil1 str3" d="M22026 7694c28,-8 182,-32 199,-37l151 -116"></path> <path class="fil1 str3" d="M3679 15930c75,-75 67,-110 28,-176"></path> <path class="fil1 str3" d="M21029 7249c75,-75 68,-110 28,-176"></path> <polygon class="fil2" points="12129,7537 12788,8866 12694,8882 12003,7609 "></polygon> <path class="fil3" d="M12740 8802c122,146 130,101 285,208 51,35 105,148 57,136l-383 -92c-84,-17 -187,-39 -198,-105 -8,-54 31,-83 39,-149l200 2z"></path> <path class="fil3" d="M12190 9030c121,146 129,101 284,207 52,36 105,149 57,137l-383 -92c-84,-17 -187,-39 -197,-105 -9,-54 31,-83 38,-149l201 2z"></path> <polygon class="fil6" points="12502,7321 12821,7682 12800,8825 12525,8850 12400,7825 12060,7576 "></polygon> <polygon class="fil6" points="11643,7817 11973,8098 11900,9050 12225,9075 12384,7940 12300,7825 12060,7576 "></polygon> <polygon class="fil2" points="11480,7911 11957,9421 11845,9421 11276,8029 "></polygon> <polygon class="fil2" points="10363,7741 10087,9140 9999,9140 10008,9098 10193,7664 "></polygon> <path class="fil3" d="M10727 5114c-1114,-748 -1764,252 -1427,968l575 953 1030 -595 -178 -1326z"></path> <polygon class="fil3" points="13682,6511 10577,8303 10577,8433 13682,6640 "></polygon> <polygon class="fil7" points="13682,6511 12232,5674 9127,7466 10577,8303 "></polygon> <path class="fil2" d="M12343 6804l-840 -485 -975 569 -40 -35 0 80c0,10 6,21 25,32l782 451 1048 -612z"></path> <path class="fil8" d="M12445 6782l-942 -543 -981 572c-15,9 -28,18 -32,29 -5,16 -3,29 23,44l884 510 1048 -612z"></path> <polygon class="fil3" points="10577,8436 9127,7599 9127,7466 10577,8303 "></polygon> <path class="fil2" d="M12508 5572l-1198 676c-40,23 -74,85 -74,139l-12 944c-1,29 9,49 23,59l0 0 1 0 1 1 70 41 7 -54 -11 -2 1178 -665c41,-23 74,-85 75,-139l12 -944 0 -4 43 -15 -68 -40 0 0 -2 -1 0 0c-13,-6 -28,-5 -45,4z"></path> <path class="fil8" d="M12578 5614l-1198 676c-40,23 -73,85 -74,139l-12 944c0,53 32,78 72,56l1198 -676c40,-23 74,-85 74,-139l12 -944c1,-54 -32,-79 -72,-56z"></path> <polygon class="fil9" points="11733,6590 11727,6506 11721,6421 11657,6396 11593,6370 11536,6429 11478,6488 11484,6572 11491,6657 11554,6682 11618,6708 11675,6649 "></polygon> <circle class="fil10" transform="matrix(-0.862768 0.241039 -0 0.862768 11763.7 6382.8)" r="126"></circle> <circle class="fil11" transform="matrix(-0.575179 0.160693 -0 0.575179 12390.8 6441)" r="126"></circle> <rect class="fil12" transform="matrix(-0.544134 1.02178 0.525655 0.850698 12319.6 6093.1)" width="375" height="125"></rect> <path class="fil13" d="M10677 4599c94,20 129,-106 123,-174 -11,-128 28,-110 -75,-175 -43,-27 -135,45 -175,0 -31,-34 -38,-98 -75,-125 -146,-108 -319,-2 -300,75 25,100 -68,111 -75,125 -58,114 0,167 0,225 0,49 56,74 104,85 27,7 -41,165 71,165l402 -201z"></path> <path class="fil14" d="M10351 4471c-25,45 -41,91 -52,56 -7,-24 -52,19 -17,114 32,88 94,372 256,242 91,-73 132,-191 141,-307 20,-251 -252,-238 -328,-105z"></path> <polygon class="fil14" points="10488,4841 10463,5091 10238,5041 10363,4766 "></polygon> <path class="fil15" d="M11012 6525c28,10 83,25 113,41 25,14 90,-1 108,45l-2 181c-3,-1 -7,-1 -8,-5l-85 -46c-2,-3 -50,-60 -58,-63 -8,-2 -19,-3 -25,-6l-110 -19 -40 -65 107 -63z"></path> <path class="fil12" d="M11026 6530c-9,-6 -5,-33 -13,-39 -29,-23 -69,-28 -150,-25l629 -366 19 35 211 -119c-22,-19 94,-125 111,-147 351,-463 -372,-756 -931,-862 -172,-32 -321,-26 -428,-28 14,74 -210,72 -210,16 -1371,354 -717,2332 324,1750 151,-85 178,-69 319,-69 20,0 32,0 38,-23 -7,-56 17,-106 81,-123z"></path> <path class="fil16" d="M11800 6774c-10,-18 -21,-26 -43,-19 -24,8 -44,34 -44,58 0,44 44,74 87,103 44,-58 88,-116 88,-160 0,-24 -20,-37 -44,-29 -22,7 -33,21 -44,47z"></path> <polygon class="fil2" points="11206,8070 11213,8766 11135,8758 11060,8154 "></polygon> <path class="fil1 str3" d="M10441 6411c-28,-7 -182,-31 -199,-37l-151 -116"></path> <path class="fil1 str3" d="M11438 5966c-75,-75 -68,-110 -28,-176"></path> <polygon class="fil2" points="13433,13159 12774,14488 12868,14504 13559,13232 "></polygon> <polygon class="fil4" points="13888,13422 13526,13602 12416,14660 12191,14410 13241,13360 13502,13199 "></polygon> <polygon class="fil6" points="13125,12981 12872,13108 12191,14410 12348,14584 13241,13360 13502,13199 "></polygon> <path class="fil2" d="M12416 14660c-39,91 -38,110 -96,132 -133,48 -542,-22 -596,-104 -19,-29 -14,-47 75,-75l400 -50 119 -11 98 108z"></path> <path class="fil3" d="M12201 14421c-209,7 -177,-33 -377,-83 -67,-17 -199,21 -154,53l354 247c75,57 168,125 230,86 50,-32 45,-86 94,-140l-147 -163z"></path> <polygon class="fil2" points="14082,13533 13605,15043 13717,15043 14286,13651 "></polygon> <polygon class="fil2" points="15199,13363 15475,14762 15563,14762 15554,14720 15369,13286 "></polygon> <path class="fil3" d="M14835 10736c1114,-748 1764,252 1427,969l-575 952 -1030 -595 178 -1326z"></path> <polygon class="fil3" points="11880,12133 14985,13925 14985,14055 11880,12262 "></polygon> <polygon class="fil7" points="11880,12133 13330,11296 16435,13089 14985,13925 "></polygon> <path class="fil2" d="M13219 12426l840 -485 975 569 40 -35 0 80c0,10 -5,21 -25,32l-782 451 -1048 -612z"></path> <path class="fil8" d="M13117 12405l942 -544 981 572c15,9 28,18 32,29 5,16 3,29 -23,44l-884 511 -1048 -612z"></path> <polygon class="fil3" points="14985,14058 16435,13221 16435,13089 14985,13925 "></polygon> <path class="fil2" d="M13054 11194l1198 676c40,23 74,86 75,139l11 944c1,29 -9,49 -23,59l0 0 -1 0 -1 1 -70 41 -7 -54 11 -2 -1178 -665c-41,-23 -74,-85 -75,-138l-12 -945 0 -4 -43 -15 68 -40 0 0 2 -1 0 0c13,-6 28,-5 45,4z"></path> <path class="fil8" d="M12984 11236l1198 676c40,23 73,85 74,139l12 944c0,53 -32,79 -72,56l-1198 -676c-40,-23 -74,-85 -74,-139l-12 -944c-1,-53 32,-79 72,-56z"></path> <circle class="fil10" transform="matrix(0.862768 0.241039 -0 0.862768 13798.4 12004.9)" r="126"></circle> <circle class="fil11" transform="matrix(0.575179 0.160693 -0 0.575179 13171.3 12063.1)" r="126"></circle> <path class="fil13" d="M14885 10221c-94,21 10,-211 -55,-189 -364,124 -153,-154 -35,-229 126,-81 186,36 260,-16 108,-75 194,136 238,108 140,-91 146,24 111,28 207,-39 -2,129 -2,176 0,49 4,147 -44,159 -27,6 -28,112 -140,112l-333 -149z"></path> <path class="fil14" d="M15211 10093c25,45 41,91 52,56 7,-24 52,19 17,114 -32,88 -94,372 -256,242 -91,-73 -132,-191 -141,-307 -20,-251 252,-237 328,-105z"></path> <polygon class="fil14" points="15074,10463 15099,10713 15324,10663 15199,10388 "></polygon> <path class="fil15" d="M14550 12147c-28,10 -82,25 -113,41 -25,14 -90,-1 -108,45l3 181c3,-1 6,-1 7,-4l85 -47c2,-3 50,-60 58,-63 8,-2 19,-3 25,-6l110 -19 40 -65 -107 -63z"></path> <path class="fil12" d="M14536 12152c9,-6 5,-32 13,-39 29,-23 69,-28 150,-25l-629 -366 -19 35 -211 -119c22,-19 -94,-125 -111,-147 -351,-463 372,-756 931,-861 172,-33 321,-27 428,-29 -14,74 210,72 210,16 1371,354 717,2333 -324,1750 -151,-85 -178,-69 -319,-69 -20,0 -31,0 -38,-23 7,-56 -17,-106 -81,-123z"></path> <path class="fil16" d="M13762 12396c11,-18 21,-26 43,-19 24,8 44,34 44,59 0,43 -44,73 -87,102 -44,-58 -88,-116 -88,-160 0,-24 20,-37 44,-29 22,7 33,21 44,47z"></path> <polygon class="fil2" points="14357,13692 14349,14388 14427,14380 14502,13776 "></polygon> <path class="fil1 str3" d="M15121 12033c28,-7 182,-31 199,-37l151 -116"></path> <path class="fil1 str3" d="M14124 11588c75,-75 68,-109 28,-176"></path> <polygon class="fil2" points="16533,14950 15875,16279 15969,16295 16659,15023 "></polygon> <polygon class="fil6" points="16226,14772 15973,14900 15336,16214 15594,16293 16342,15152 16650,15018 "></polygon> <path class="fil3" d="M15780 16385c-175,113 -168,63 -366,124 -65,20 -159,121 -104,124l431 29c93,10 208,21 241,-45 26,-53 -6,-97 8,-168l-210 -64z"></path> <polygon class="fil6" points="17268,15095 16768,15395 16001,16466 15739,16378 16399,15127 16728,14955 "></polygon> <path class="fil3" d="M15355 16220c-175,113 -168,63 -366,123 -65,21 -159,121 -104,125l431 29c93,10 208,20 241,-45 26,-54 -6,-97 8,-168l-210 -64z"></path> <polygon class="fil2" points="17182,15325 16705,16835 16818,16835 17387,15443 "></polygon> <polygon class="fil2" points="18300,15154 18575,16553 18663,16553 18655,16511 18469,15077 "></polygon> <path class="fil3" d="M17935 12527c1115,-748 1765,252 1427,969l-574 952 -1031 -595 178 -1326z"></path> <polygon class="fil3" points="14981,13924 18086,15717 18086,15846 14981,14054 "></polygon> <polygon class="fil7" points="14981,13924 16430,13087 19535,14880 18086,15717 "></polygon> <path class="fil2" d="M16320 14217l840 -485 975 570 40 -36 0 80c0,11 -6,21 -25,32l-782 451 -1048 -612z"></path> <path class="fil8" d="M16218 14196l942 -544 981 573c15,8 28,17 31,29 5,15 4,28 -22,44l-884 510 -1048 -612z"></path> <polygon class="fil3" points="18086,15850 19535,15013 19535,14880 18086,15717 "></polygon> <path class="fil2" d="M16155 12986l1198 676c40,22 73,85 74,138l12 944c0,29 -9,50 -24,59l0 0 0 0 -1 1 -70 41 -7 -54 11 -1 -1179 -666c-40,-22 -74,-85 -74,-138l-12 -944 0 -5 -43 -14 67 -40 1 -1 2 -1 0 0c12,-6 28,-5 45,5z"></path> <path class="fil8" d="M16085 13027l1197 676c40,23 74,85 75,139l11 944c1,54 -31,79 -72,56l-1197 -676c-40,-23 -74,-85 -75,-138l-11 -945c-1,-53 31,-78 72,-56z"></path> <circle class="fil10" transform="matrix(0.862768 0.241039 -0 0.862768 16899 13796.2)" r="126"></circle> <circle class="fil11" transform="matrix(0.575179 0.160693 -0 0.575179 16271.9 13854.4)" r="126"></circle> <rect class="fil12" transform="matrix(0.544134 1.02178 -0.525655 0.850698 16343 13506.5)" width="375" height="125"></rect> <path class="fil13" d="M18023 12158c-94,20 -186,-170 -180,-238 40,-499 379,-268 382,-270 281,-181 333,451 293,470 -118,55 -165,193 -268,5l-227 33z"></path> <path class="fil14" d="M18311 11885c26,44 42,90 53,55 7,-23 51,19 17,114 -32,89 -95,372 -256,243 -92,-74 -133,-192 -142,-308 -19,-251 252,-237 328,-104z"></path> <polygon class="fil14" points="18175,12254 18200,12504 18425,12454 18300,12179 "></polygon> <path class="fil15" d="M17650 13938c-27,10 -82,25 -112,42 -26,13 -90,-2 -108,44l2 181c3,-1 6,-1 8,-4l85 -47c2,-3 49,-60 58,-63 8,-2 18,-2 24,-6l110 -19 40 -65 -107 -63z"></path> <path class="fil12" d="M17637 13943c9,-5 5,-32 13,-39 28,-23 69,-27 150,-25l-629 -366 -20 35 -211 -119c22,-18 -93,-124 -110,-147 -351,-463 372,-756 931,-861 172,-33 320,-27 427,-29 -13,74 211,72 211,16 1371,354 716,2333 -324,1750 -152,-85 -178,-68 -319,-69 -20,0 -32,0 -39,-23 8,-55 -17,-106 -80,-123z"></path> <polygon class="fil2" points="17457,15483 17450,16179 17528,16172 17602,15567 "></polygon> <path class="fil1 str3" d="M18222 13824c27,-7 182,-31 198,-37l151 -115"></path> <path class="fil1 str3" d="M17225 13379c75,-75 67,-109 28,-176"></path> <g id="_1699578144"> <polygon class="fil2" points="22585,18515 23244,19845 23150,19860 22459,18588 "></polygon> <path class="fil17" d="M22795 20118c181,104 172,54 372,103 67,17 165,112 111,119l-428 53c-93,15 -207,32 -243,-31 -30,-52 16,-108 -2,-178l190 -66z"></path> <polygon class="fil18" points="22130,18778 22391,18970 22603,20182 22853,20173 22777,18717 22516,18555 "></polygon> <polygon class="fil18" points="22893,18338 23146,18465 23827,19767 23670,19941 22777,18717 22516,18555 "></polygon> <path class="fil17" d="M23817 19777c209,7 177,-32 377,-82 67,-17 199,21 154,52l-354 248c-75,56 -168,125 -229,86 -51,-32 -46,-86 -95,-140l147 -164z"></path> <polygon class="fil2" points="21936,18890 22413,20400 22301,20400 21732,19008 "></polygon> <polygon class="fil2" points="20819,18720 20543,20118 20455,20118 20464,20076 20649,18642 "></polygon> <path class="fil3" d="M21183 16092c-1114,-747 -1764,253 -1427,969l575 952 1030 -594 -178 -1327z"></path> <polygon class="fil3" points="24138,17489 21033,19282 21033,19411 24138,17619 "></polygon> <polygon class="fil7" points="24138,17489 22688,16652 19583,18445 21033,19282 "></polygon> <path class="fil2" d="M22799 17783l-840 -485 -975 569 -40 -36 0 80c0,11 6,21 25,32l782 452 1048 -612z"></path> <path class="fil8" d="M22901 17761l-942 -544 -981 573c-15,8 -28,17 -32,29 -5,15 -3,29 23,44l884 510 1048 -612z"></path> <polygon class="fil3" points="21033,19415 19583,18578 19583,18445 21033,19282 "></polygon> <path class="fil2" d="M22964 16551l-1198 676c-40,23 -74,85 -74,138l-12 945c-1,28 9,49 23,58l0 0 1 0 1 1 70 42 7 -54 -11 -2 1178 -665c41,-23 74,-85 75,-139l12 -944 0 -4 43 -15 -68 -40 0 0 -2 -2 0 0c-13,-6 -28,-5 -45,5z"></path> <path class="fil8" d="M23034 16593l-1198 676c-40,22 -73,85 -74,138l-12 944c0,54 32,79 72,56l1198 -676c40,-22 74,-85 74,-138l12 -944c1,-54 -32,-79 -72,-56z"></path> <polygon class="fil11" points="22905,17094 22901,17040 22897,16986 22856,16969 22815,16953 22778,16990 22741,17028 22745,17083 22749,17137 22790,17153 22831,17170 22868,17132 "></polygon> <circle class="fil18" transform="matrix(-0.431384 0.12052 -0 0.431384 21998 17898.8)" r="126"></circle> <circle class="fil10" transform="matrix(-0.575179 0.160693 -0 0.575179 22846.8 17419.6)" r="126"></circle> <rect class="fil19" transform="matrix(-0.370041 -1.0969 -0.979544 -0.201232 22657.3 17830.6)" width="375" height="125"></rect> <rect class="fil20" transform="matrix(0.556788 -0.145165 0.133984 -0.478648 21865.8 17544.6)" width="375" height="125"></rect> <path class="fil8" d="M21191 15820c-28,57 -800,11 -800,-187 0,-659 550,-638 725,-463 119,118 50,563 75,650z"></path> <path class="fil14" d="M20807 15450c-25,44 -41,90 -52,55 -7,-23 -52,19 -17,114 32,89 94,373 256,243 91,-74 133,-192 141,-308 20,-251 -252,-237 -328,-104z"></path> <polygon class="fil14" points="20944,15820 20919,16070 20694,16020 20819,15745 "></polygon> <path class="fil15" d="M21468 17504c28,9 83,25 113,41 25,14 90,-2 108,45l-2 180c-3,0 -7,-1 -8,-4l-85 -46c-2,-3 -50,-61 -58,-64 -8,-2 -19,-2 -25,-6l-110 -19 -40 -65 107 -62z"></path> <path class="fil8" d="M21482 17508c-9,-5 -5,-32 -13,-38 -29,-23 -69,-28 -150,-25l629 -367 19 35 211 -119c-22,-18 94,-124 111,-146 351,-464 -372,-757 -931,-862 -172,-32 -321,-26 -428,-29 14,75 -210,72 -210,16 -1371,354 -717,2333 324,1750 151,-85 178,-68 319,-68 20,0 32,0 38,-24 -7,-55 17,-106 81,-123z"></path> <polygon class="fil2" points="21662,19049 21669,19745 21591,19737 21517,19132 "></polygon> <path class="fil1 str3" d="M20897 17390c-28,-8 -182,-32 -199,-37l-151 -116"></path> <path class="fil1 str3" d="M21894 16945c-75,-75 -68,-110 -28,-176"></path> </g> <g id="_1904207568"> <polygon class="fil2" points="10671,17501 11329,18830 11235,18846 10544,17573 "></polygon> <polygon class="fil21" points="10215,17764 10577,17944 11687,19002 11912,18752 10862,17702 10602,17540 "></polygon> <polygon class="fil18" points="10978,17323 11231,17450 11912,18752 11756,18926 10862,17702 10602,17540 "></polygon> <path class="fil3" d="M11687 19002c40,91 38,110 96,131 133,49 543,-21 596,-103 19,-29 14,-47 -75,-75l-400 -50 -119 -12 -98 109z"></path> <path class="fil17" d="M11903 18763c208,6 176,-33 376,-83 67,-17 199,21 154,52l-354 248c-75,56 -167,125 -229,86 -51,-32 -46,-86 -94,-140l147 -163z"></path> <polygon class="fil2" points="10022,17875 10498,19385 10386,19385 9817,17993 "></polygon> <polygon class="fil2" points="8904,17705 8629,19104 8541,19104 8549,19062 8735,17628 "></polygon> <path class="fil3" d="M9268 15078c-1114,-748 -1764,252 -1426,969l574 952 1031 -595 -179 -1326z"></path> <polygon class="fil3" points="12223,16475 9118,18267 9118,18397 12223,16604 "></polygon> <polygon class="fil7" points="12223,16475 10774,15638 7669,17431 9118,18267 "></polygon> <path class="fil2" d="M10884 16768l-840 -485 -975 569 -40 -35 0 80c0,10 6,21 25,32l782 451 1048 -612z"></path> <path class="fil8" d="M10986 16746l-942 -543 -981 572c-15,9 -28,18 -31,29 -5,16 -4,29 22,44l884 510 1048 -612z"></path> <polygon class="fil3" points="9118,18400 7669,17563 7669,17431 9118,18267 "></polygon> <path class="fil2" d="M11049 15536l-1198 676c-40,23 -73,85 -74,139l-12 944c0,29 9,49 24,59l0 0 0 0 1 1 70 41 7 -54 -11 -2 1179 -665c40,-23 73,-85 74,-138l12 -945 0 -4 43 -15 -67 -40 -1 0 -2 -1 0 0c-12,-6 -28,-5 -45,4z"></path> <path class="fil8" d="M11119 15578l-1197 676c-41,23 -74,85 -75,139l-11 944c-1,53 31,79 72,56l1197 -676c40,-23 74,-85 75,-139l11 -944c1,-54 -31,-79 -72,-56z"></path> <polygon class="fil11" points="10706,16129 10702,16075 10698,16021 10657,16005 10616,15988 10579,16026 10543,16064 10547,16118 10551,16172 10591,16189 10632,16205 10669,16167 "></polygon> <circle class="fil18" transform="matrix(-0.862768 0.241039 -0 0.862768 10137.4 16828.1)" r="126"></circle> <circle class="fil10" transform="matrix(-0.575179 0.160693 -0 0.575179 10932.1 16405)" r="126"></circle> <rect class="fil19" transform="matrix(-0.370041 -1.0969 -0.979544 -0.201232 10742.6 16816.1)" width="375" height="125"></rect> <rect class="fil20" transform="matrix(0.992005 -0.596701 -0.0135516 -0.999908 10426.8 16772.2)" width="375" height="125"></rect> <path class="fil8" d="M8842 14663c-27,57 -222,15 -222,-183 0,-79 52,-260 127,-300 19,-10 63,-74 16,-74 -235,0 -305,-80 -370,-176 -26,-37 -125,-159 -75,-275 48,-112 261,-129 286,-29 -12,-25 114,-96 189,4 31,42 43,-24 75,150 25,-50 150,-75 69,146 -38,106 -100,143 8,150 24,1 138,-39 247,27 81,48 68,222 92,298 25,80 7,157 -52,210 -6,6 -3,4 -12,6l-378 46z"></path> <path class="fil14" d="M8892 14435c-25,45 -41,91 -52,56 -7,-24 -52,19 -17,114 32,88 95,372 256,242 92,-73 133,-191 142,-307 19,-251 -253,-237 -329,-105z"></path> <polygon class="fil14" points="9029,14805 9004,15055 8779,15005 8904,14730 "></polygon> <path class="fil15" d="M9554 16489c27,10 82,25 112,41 26,14 90,-1 108,45l-2 181c-3,-1 -6,-1 -8,-4l-85 -47c-2,-3 -49,-60 -58,-63 -8,-2 -18,-3 -24,-6l-111 -19 -39 -65 107 -63z"></path> <path class="fil8" d="M9567 16494c-9,-6 -5,-33 -13,-39 -28,-23 -69,-28 -150,-25l629 -366 20 35 211 -119c-22,-19 93,-125 110,-147 351,-463 -372,-756 -931,-862 -172,-32 -320,-26 -428,-28 14,74 -210,72 -210,16 -1371,354 -716,2332 324,1750 152,-85 178,-69 319,-69 20,0 32,0 38,-23 -7,-56 18,-106 81,-123z"></path> <path class="fil22" d="M11018 16025c12,17 23,24 45,16 24,-9 42,-36 40,-61 -2,-43 -47,-70 -93,-97 -40,60 -81,121 -78,164 1,24 21,36 45,27 21,-8 32,-23 41,-49z"></path> <polygon class="fil2" points="9747,18034 9754,18730 9676,18722 9602,18118 "></polygon> <path class="fil1 str3" d="M8982 16375c-27,-7 -182,-31 -198,-37l-151 -116"></path> <path class="fil1 str3" d="M9979 15930c-75,-75 -67,-110 -28,-176"></path> <path class="fil1 str4" d="M8909 14063c8,-56 12,-57 -31,-15 -21,21 -35,39 -61,25 -33,-17 -25,94 6,8 26,-69 -130,-11 2,22 34,9 80,-37 53,-55 -21,-15 -106,-17 -146,59 -33,64 57,70 50,7 -4,-36 -42,36 -13,44"></path> </g> <polygon class="fil2" points="9024,9329 9683,10659 9589,10674 8898,9402 "></polygon> <polygon class="fil21" points="8569,9592 8931,9773 10041,10831 10266,10581 9216,9531 8955,9369 "></polygon> <polygon class="fil18" points="9332,9152 9585,9279 10266,10581 10109,10755 9216,9531 8955,9369 "></polygon> <path class="fil3" d="M10041 10831c40,90 38,110 96,131 133,49 543,-21 596,-103 19,-29 14,-47 -75,-75l-400 -50 -119 -12 -98 109z"></path> <path class="fil17" d="M10256 10591c209,7 177,-32 377,-82 67,-17 199,21 154,52l-354 248c-75,56 -168,125 -229,86 -51,-32 -46,-86 -95,-140l147 -164z"></path> <polygon class="fil2" points="8375,9704 8852,11214 8740,11214 8171,9822 "></polygon> <polygon class="fil2" points="7258,9534 6983,10932 6894,10932 6903,10890 7088,9456 "></polygon> <path class="fil3" d="M7622 6906c-1114,-747 -1764,253 -1427,969l575 952 1030 -594 -178 -1327z"></path> <polygon class="fil3" points="10577,8303 7472,10096 7472,10225 10577,8433 "></polygon> <polygon class="fil7" points="10577,8303 9127,7466 6023,9259 7472,10096 "></polygon> <path class="fil2" d="M9238 8597l-840 -485 -975 569 -40 -36 0 80c0,11 6,21 25,32l782 452 1048 -612z"></path> <path class="fil8" d="M9340 8575l-942 -544 -981 573c-15,8 -28,17 -32,29 -5,15 -3,29 23,44l884 510 1048 -612z"></path> <polygon class="fil3" points="7472,10229 6023,9392 6023,9259 7472,10096 "></polygon> <path class="fil2" d="M9403 7365l-1198 676c-40,23 -74,85 -74,138l-12 945c0,28 9,49 24,58l0 0 0 0 1 1 70 42 7 -54 -11 -2 1179 -665c40,-23 73,-85 74,-139l12 -944 0 -4 43 -15 -68 -40 0 0 -2 -2 0 0c-12,-6 -28,-5 -45,5z"></path> <path class="fil8" d="M9473 7407l-1197 676c-41,22 -74,85 -75,138l-12 944c0,54 32,79 72,56l1198 -676c40,-22 74,-85 74,-138l12 -944c1,-54 -32,-79 -72,-56z"></path> <circle class="fil10" transform="matrix(-0.575179 0.160693 -0 0.575179 8927.79 8124.99)" r="126"></circle> <path class="fil8" d="M7196 6491c-28,57 -171,8 -222,-183 -126,-471 176,-158 157,-447 -2,-31 95,-5 119,-61 48,-112 275,0 300,100 -1,-3 200,-275 88,329 -16,83 7,158 -52,211 -6,6 -3,4 -12,6l-378 45z"></path> <path class="fil14" d="M7246 6264c-25,44 -41,90 -52,55 -7,-23 -52,19 -17,114 32,89 94,373 256,243 92,-74 133,-192 142,-308 19,-251 -253,-237 -329,-104z"></path> <polygon class="fil14" points="7383,6634 7358,6884 7133,6834 7258,6559 "></polygon> <path class="fil15" d="M7908 8318c27,9 82,25 112,41 26,14 90,-2 108,45l-2 180c-3,0 -7,-1 -8,-4l-85 -46c-2,-3 -49,-61 -58,-64 -8,-2 -18,-2 -24,-6l-111 -19 -40 -65 108 -62z"></path> <path class="fil8" d="M7921 8322c-9,-5 -5,-32 -13,-38 -28,-23 -69,-28 -150,-25l629 -367 19 35 212 -119c-23,-18 93,-124 110,-146 351,-464 -372,-757 -931,-862 -172,-32 -321,-26 -428,-29 14,75 -210,72 -210,16 -1371,354 -716,2333 324,1750 151,-85 178,-68 319,-68 20,0 32,0 38,-24 -7,-55 17,-106 81,-123z"></path> <polygon class="fil2" points="8101,9863 8108,10559 8030,10551 7956,9946 "></polygon> <path class="fil1 str3" d="M7336 8204c-28,-8 -182,-32 -198,-37l-151 -116"></path> <path class="fil1 str3" d="M8333 7759c-75,-75 -68,-110 -28,-176"></path> <polygon class="fil2" points="25405,9104 24747,10434 24841,10449 25531,9177 "></polygon> <polygon class="fil21" points="25861,9367 25499,9548 24389,10606 24164,10356 25214,9306 25474,9144 "></polygon> <polygon class="fil18" points="25098,8927 24845,9054 24164,10356 24320,10530 25214,9306 25474,9144 "></polygon> <path class="fil3" d="M24389 10606c-40,90 -38,110 -96,131 -133,49 -543,-21 -596,-103 -19,-29 -15,-47 75,-75l400 -50 119 -12 98 109z"></path> <path class="fil17" d="M24173 10366c-208,7 -176,-32 -376,-82 -67,-17 -199,21 -154,52l354 248c75,56 167,125 229,86 51,-32 46,-86 94,-140l-147 -164z"></path> <polygon class="fil2" points="26054,9479 25577,10989 25690,10989 26259,9597 "></polygon> <polygon class="fil2" points="27172,9309 27447,10707 27535,10707 27527,10665 27341,9231 "></polygon> <path class="fil3" d="M26807 6681c1115,-747 1765,253 1427,969l-574 953 -1031 -595 178 -1327z"></path> <polygon class="fil3" points="23853,8078 26958,9871 26958,10000 23853,8208 "></polygon> <polygon class="fil7" points="23853,8078 25302,7241 28407,9034 26958,9871 "></polygon> <path class="fil2" d="M25192 8372l840 -485 974 569 41 -36 0 80c0,11 -6,21 -25,32l-782 452 -1048 -612z"></path> <path class="fil8" d="M25090 8350l942 -544 981 573c15,8 28,17 31,29 5,15 4,29 -22,44l-884 510 -1048 -612z"></path> <polygon class="fil3" points="26958,10004 28407,9167 28407,9034 26958,9871 "></polygon> <path class="fil2" d="M25027 7140l1198 676c40,23 73,85 74,138l12 945c0,28 -9,49 -24,58l0 0 0 1 -1 0 -70 42 -7 -54 11 -2 -1179 -665c-40,-23 -74,-85 -74,-139l-12 -944 0 -4 -43 -15 67 -40 1 0 2 -2 0 0c12,-6 28,-5 45,5z"></path> <path class="fil8" d="M24957 7182l1197 676c40,22 74,85 75,138l11 944c1,54 -31,79 -72,56l-1197 -676c-41,-22 -74,-85 -75,-138l-11 -944c-1,-54 31,-79 72,-56z"></path> <polygon class="fil11" points="25370,7733 25374,7679 25378,7625 25419,7608 25460,7592 25496,7630 25533,7667 25529,7722 25525,7776 25484,7792 25444,7809 25407,7771 "></polygon> <circle class="fil10" transform="matrix(0.575179 0.160693 -0 0.575179 25143.9 8008.6)" r="126"></circle> <path class="fil8" d="M27109 6371c82,171 318,167 424,129 95,-33 500,253 616,211 128,-45 175,177 275,222 181,82 432,-119 476,-108 100,25 -675,-1125 -799,-700 26,-56 -351,-718 -1191,-536 -92,20 -210,311 -235,461 -14,83 110,112 169,165 6,6 3,4 12,6l253 150z"></path> <path class="fil14" d="M27183 6039c26,44 42,90 53,55 7,-23 51,19 17,114 -32,89 -95,373 -256,243 -92,-74 -133,-192 -142,-308 -19,-251 252,-237 328,-104z"></path> <polygon class="fil14" points="27047,6409 27072,6659 27297,6609 27172,6334 "></polygon> <path class="fil15" d="M26522 8093c-27,9 -82,25 -112,41 -26,14 -90,-2 -108,45l2 180c3,0 6,-1 8,-4l85 -46c2,-3 49,-61 58,-64 8,-2 18,-2 24,-6l110 -19 40 -65 -107 -62z"></path> <path class="fil8" d="M26509 8097c9,-5 5,-32 13,-38 28,-23 69,-28 150,-25l-629 -367 -20 35 -211 -119c22,-18 -93,-124 -110,-146 -352,-464 372,-757 931,-862 172,-32 320,-26 427,-29 -13,75 211,72 211,16 1371,354 716,2333 -324,1750 -152,-85 -178,-68 -319,-68 -20,0 -32,0 -39,-24 8,-55 -17,-106 -80,-123z"></path> <polygon class="fil2" points="26329,9638 26322,10334 26400,10326 26474,9721 "></polygon> <path class="fil1 str3" d="M27094 7979c27,-7 182,-32 198,-37l151 -116"></path> <path class="fil1 str3" d="M26097 7534c75,-75 67,-110 28,-176"></path> <polygon class="fil2" points="5921,11121 6579,12450 6485,12466 5794,11194 "></polygon> <path class="fil17" d="M6092 12950c186,95 174,46 376,86 68,14 171,104 117,113l-426 73c-92,19 -205,41 -244,-21 -32,-50 -4,-97 -25,-166l202 -85z"></path> <polygon class="fil18" points="5311,11473 5550,11725 5873,13049 6144,12980 5982,11539 5691,11197 "></polygon> <path class="fil17" d="M7142 12375c186,95 174,46 376,86 68,14 171,104 117,113l-426 73c-92,19 -205,41 -244,-21 -32,-50 -4,-97 -25,-166l202 -85z"></path> <polygon class="fil18" points="6228,10943 6481,11071 7162,12373 6948,12467 6112,11323 5852,11161 "></polygon> <polygon class="fil2" points="5272,11496 5748,13006 5636,13006 5067,11614 "></polygon> <polygon class="fil2" points="4154,11325 3879,12724 3791,12724 3799,12682 3985,11248 "></polygon> <path class="fil3" d="M4518 8698c-1114,-748 -1764,252 -1426,969l574 952 1030 -595 -178 -1326z"></path> <polygon class="fil3" points="7473,10095 4368,11888 4368,12017 7473,10225 "></polygon> <polygon class="fil7" points="7473,10095 6023,9258 2919,11051 4368,11888 "></polygon> <path class="fil2" d="M6134 10388l-840 -485 -975 570 -40 -36 0 80c0,11 6,21 25,32l782 451 1048 -612z"></path> <path class="fil8" d="M6236 10367l-942 -544 -981 573c-15,8 -28,17 -32,29 -4,15 -3,28 23,44l884 510 1048 -612z"></path> <polygon class="fil3" points="4368,12021 2919,11184 2919,11051 4368,11888 "></polygon> <path class="fil2" d="M6299 9157l-1198 676c-40,22 -74,85 -74,138l-12 944c0,29 9,50 24,59l0 0 0 0 1 1 70 41 7 -54 -11 -1 1179 -666c40,-22 73,-85 74,-138l12 -944 0 -5 43 -14 -67 -40 -1 -1 -2 -1 0 0c-12,-6 -28,-5 -45,5z"></path> <path class="fil8" d="M6369 9198l-1197 676c-41,23 -74,85 -75,139l-11 944c-1,54 31,79 72,56l1197 -676c40,-23 74,-85 75,-138l11 -945c1,-53 -31,-78 -72,-56z"></path> <polygon class="fil11" points="5814,10374 5810,10320 5806,10266 5765,10250 5724,10233 5687,10271 5650,10309 5654,10363 5658,10417 5699,10434 5740,10450 5777,10412 "></polygon> <circle class="fil18" transform="matrix(-0.862768 0.241039 -0 0.862768 5387.34 10448.4)" r="126"></circle> <circle class="fil18" transform="matrix(-0.862768 0.241039 -0 0.862768 5558.57 10056.2)" r="126"></circle> <circle class="fil10" transform="matrix(-0.575179 0.160693 -0 0.575179 5277.79 10075)" r="126"></circle> <path class="fil8" d="M4092 8283c-28,57 -222,15 -222,-183 0,-79 52,-259 127,-299 19,-10 63,-75 16,-75 -235,0 -267,482 -338,574 -72,92 -404,243 -525,250 -282,16 -450,-225 -100,-775 131,-207 687,-932 992,-525 32,42 44,-24 75,150 25,-50 150,-75 70,147 -38,106 -100,142 8,149 24,2 138,-39 247,27 81,49 68,222 92,298 25,81 7,158 -52,211 -6,5 -3,3 -12,6l-378 45z"></path> <path class="fil14" d="M4142 8056c-25,44 -41,90 -52,55 -7,-23 -52,19 -17,114 32,89 94,372 256,243 92,-74 133,-192 142,-308 19,-251 -253,-237 -329,-104z"></path> <polygon class="fil14" points="4279,8425 4254,8675 4029,8625 4154,8350 "></polygon> <path class="fil15" d="M4804 10109c27,10 82,25 112,42 26,13 90,-2 108,44l-2 181c-3,-1 -6,-1 -8,-4l-85 -47c-2,-3 -49,-60 -58,-63 -8,-2 -18,-2 -24,-6l-111 -19 -39 -65 107 -63z"></path> <path class="fil8" d="M4817 10114c-9,-5 -5,-32 -13,-39 -28,-23 -69,-27 -150,-25l629 -366 19 35 212 -119c-22,-18 93,-124 110,-147 351,-463 -372,-756 -931,-861 -172,-33 -320,-27 -428,-29 14,74 -210,72 -210,16 -1371,354 -716,2333 324,1750 152,-85 178,-68 319,-69 20,0 32,0 38,-23 -7,-55 18,-106 81,-123z"></path> <path class="fil22" d="M5576 10545c12,17 23,24 44,16 24,-9 42,-36 41,-61 -3,-43 -48,-70 -93,-97 -41,60 -81,120 -79,164 1,24 22,36 45,27 22,-8 32,-23 42,-49z"></path> <path class="fil23" d="M5821 10169c-11,-18 -22,-26 -44,-19 -24,8 -44,34 -44,58 0,44 43,74 87,103 44,-57 88,-115 88,-159 1,-24 -19,-37 -43,-30 -22,7 -33,22 -44,47z"></path> <polygon class="fil2" points="4997,11654 5004,12350 4926,12343 4852,11738 "></polygon> <path class="fil1 str3" d="M4232 9995c-28,-7 -182,-31 -198,-37l-151 -115"></path> <path class="fil1 str3" d="M5229 9550c-75,-75 -67,-109 -28,-176"></path> <path class="fil1 str4" d="M4159 7683c8,-55 12,-57 -31,-15 -21,21 -35,39 -61,25 -33,-17 -26,94 6,8 26,-68 -130,-11 2,22 34,9 80,-36 53,-55 -21,-15 -106,-16 -146,59 -34,64 57,70 50,7 -4,-36 -43,36 -13,45"></path> <path class="fil13" d="M17975 11725c13,-9 27,-138 -61,-152 0,0 -5,-240 -64,-198 -31,22 -152,-21 -175,-25 -46,-8 -100,225 -100,225 -19,20 94,116 114,146 29,-4 -35,-22 -10,41 35,86 310,7 310,-41l-14 4z"></path> <path class="fil13" d="M18315 11742c25,-32 -104,-90 -37,-164 1,0 115,-73 117,-73 86,-26 32,18 61,-5 32,-26 101,-1 91,44 19,2 195,-89 178,-19 -6,26 -67,110 -11,108 270,-9 -16,126 -168,139 -85,7 -44,-11 -119,1 -31,6 -108,-36 -112,-31z"></path> <path class="fil6" d="M22103 5902c-90,265 307,183 255,-72 -3,-15 -25,-64 -47,-57 -6,4 -131,-97 -208,129z"></path> <path class="fil1 str5" d="M21700 5825c47,-387 533,-374 575,-25"></path> <path class="fil1 str6" d="M7376 6443c46,-2 41,-96 -12,-100 -107,-10 -74,102 12,100z"></path> <path class="fil1 str6" d="M7535 6462c46,-1 42,-95 -11,-100 -108,-10 -74,102 11,100z"></path> <line class="fil1 str6" x1="7405" y1="6392" x2="7460" y2="6394"></line> <line class="fil1 str7" x1="7297" y1="6375" x2="7167" y2="6275"></line> <g id="_1904222352"> <path class="fil3" d="M4025 11144c0,3 0,7 0,10l0 0 0 0c4,50 51,94 122,106 90,16 182,-22 207,-86 3,-6 5,-13 6,-20l1 0 0 -199 -336 17 0 172z"></path> <ellipse class="fil8" transform="matrix(-0.170614 -0.0304483 -0.0623964 0.157997 4192.8 10968.5)" rx="947" ry="728"></ellipse> <path class="fil1 str8" d="M4030 11025c-24,-1 -103,-37 -101,39 2,47 73,69 109,69"></path> </g> <g id="_1904167472"> <path class="fil3" d="M10303 7647c0,4 0,7 0,10l0 1 0 0c4,49 51,93 122,106 90,16 182,-23 207,-86 3,-7 5,-14 6,-20l1 0 0 -200 -336 17 0 172z"></path> <ellipse class="fil8" transform="matrix(-0.170614 -0.0304483 -0.0623964 0.157997 10470.8 7471.86)" rx="947" ry="728"></ellipse> <path class="fil1 str8" d="M10308 7529c-24,-1 -103,-38 -101,39 2,47 73,68 109,68"></path> </g> <g id="_1904161264"> <path class="fil3" d="M15256 13160c0,3 0,7 0,10l0 0 0 0c-4,50 -51,94 -123,106 -89,16 -181,-22 -206,-86 -3,-6 -5,-13 -6,-20l-1 0 0 -199 336 17 0 172z"></path> <ellipse class="fil8" transform="matrix(0.170614 -0.0304483 0.0623964 0.157997 15088 12984.5)" rx="947" ry="728"></ellipse> <path class="fil1 str8" d="M15251 13041c24,-1 103,-37 101,39 -2,47 -73,69 -109,69"></path> </g> <g id="_1904168016"> <path class="fil3" d="M20649 18647c0,3 0,7 0,10l0 0 0 0c3,50 51,94 122,106 89,16 182,-22 207,-86 3,-6 4,-13 5,-20l1 0 0 -199 -335 17 0 172z"></path> <ellipse class="fil8" transform="matrix(-0.170614 -0.0304483 -0.0623964 0.157997 20816.6 18471.5)" rx="947" ry="728"></ellipse> <path class="fil1 str8" d="M20654 18528c-25,-1 -103,-37 -101,39 1,47 72,69 108,69"></path> </g> <g id="_1904176080"> <path class="fil3" d="M27206 9193c1,3 1,6 0,10l0 0 0 0c-3,50 -51,93 -122,106 -89,16 -182,-23 -207,-86 -2,-7 -4,-13 -5,-20l-1 0 0 -199 335 17 0 172z"></path> <ellipse class="fil8" transform="matrix(0.170614 -0.0304483 0.0623964 0.157997 27038.7 9017.31)" rx="947" ry="728"></ellipse> <path class="fil1 str8" d="M27201 9074c25,-1 103,-37 101,39 -1,47 -72,69 -108,69"></path> </g> </g> </svg> 